<?xml version="1.0" encoding="UTF-8"?>
<!DOCTYPE svg PUBLIC "-//W3C//DTD SVG 1.1//EN" "http://www.w3.org/Graphics/SVG/1.1/DTD/svg11.dtd">
<svg xmlns="http://www.w3.org/2000/svg" xml:space="preserve" width="17px" height="17px" version="1.1" style="shape-rendering:geometricPrecision; text-rendering:geometricPrecision; image-rendering:optimizeQuality; fill-rule:evenodd; clip-rule:evenodd"
viewBox="0 0 170 170"
 xmlns:xlink="http://www.w3.org/1999/xlink"
>
 <defs>
  <style type="text/css">
   <![CDATA[
    .fil0 {fill:#2B2A29;fill-rule:nonzero}
   ]]>
  </style>
 </defs>
 <g id="x0020_1">
  <metadata id="Hlogin-Layer"/>
  <path class="fil0" d="M65.1 77.6l15.2 34.9 28 -60.6c1.7,-3.8 3.4,-6.4 5.1,-7.9 1.6,-1.6 4.2,-2.3 7.6,-2.3 3.2,0 5.9,0.8 8.1,2.5 2.2,1.6 3.4,3.5 3.4,5.7 0,0.9 -0.2,1.9 -0.6,3 -0.4,1.2 -0.9,2.2 -1.4,3.2 -0.5,1 -1.2,2.2 -1.8,3.4l-30.2 60.8c-0.7,1.4 -1.6,3.1 -2.7,5.1 -1.1,2 -2.2,3.8 -3.6,5.2 -1.3,1.5 -2.9,2.6 -4.8,3.4 -2,0.8 -4.3,1.2 -7.1,1.2 -3.6,0 -6.4,-0.6 -8.5,-1.9 -2.2,-1.2 -3.7,-2.6 -4.7,-4.1 -1,-1.5 -2.9,-4.4 -5.2,-8.9l-18.7 -36.4c-0.6,-1.1 -1.2,-2.3 -1.7,-3.4 -0.6,-1.2 -1.1,-2.3 -1.5,-3.5 -0.4,-1.2 -0.6,-2.2 -0.6,-3.1 0,-1.3 0.5,-2.6 1.6,-3.9 1,-1.3 2.4,-2.4 4.3,-3.2 1.8,-0.8 3.8,-1.3 6,-1.3 4.1,0 7.1,1 8.6,2.8 1.6,1.9 3.3,5 5.2,9.3z"/>
 </g>
</svg>
