<?xml version="1.0" encoding="UTF-8"?>
<!DOCTYPE svg PUBLIC "-//W3C//DTD SVG 1.1//EN" "http://www.w3.org/Graphics/SVG/1.1/DTD/svg11.dtd">
<svg xmlns="http://www.w3.org/2000/svg" xml:space="preserve" width="30px" height="30px" version="1.1" style="shape-rendering:geometricPrecision; text-rendering:geometricPrecision; image-rendering:optimizeQuality; fill-rule:evenodd; clip-rule:evenodd"
     viewBox="0 0 300 300"
     xmlns:xlink="http://www.w3.org/1999/xlink"
>
 <defs>
  <style type="text/css">
   <![CDATA[
    .fil1 {fill:#FEFEFE}
    .fil0 {fill:#FEFEFE;fill-rule:nonzero}
   ]]>
  </style>
 </defs>
 <g id="x0020_1">
  <metadata id="Hlogin-Layer"/>
  <path class="fil0" d="M70 69.8l63.8 80.2c6.2,5.6 15.1,11.1 26.8,0.8l72.8 -82.5 12.9 16.1 -76.4 86.4c-8.2,6.6 -31.1,13.2 -47.6,0l-69.5 -80.1 17.2 -20.9z"/>
  <path class="fil1" d="M79.8 57.2l139 0c22.7,0 41.2,18.5 41.2,41.2l0 139c0,22.7 -18.5,41.2 -41.2,41.2l-139 0c-22.7,0 -41.2,-18.5 -41.2,-41.2l0 -139c0,-22.7 18.5,-41.2 41.2,-41.2zm0 23l139 0c10,0 18.2,8.2 18.2,18.2l0 139c0,10 -8.2,18.2 -18.2,18.2l-139 0c-10,0 -18.2,-8.2 -18.2,-18.2l0 -139c0,-10 8.2,-18.2 18.2,-18.2z"/>
 </g>
</svg>
