<?xml version="1.0" encoding="UTF-8"?>
<!DOCTYPE svg PUBLIC "-//W3C//DTD SVG 1.1//EN" "http://www.w3.org/Graphics/SVG/1.1/DTD/svg11.dtd">
<!-- Creator: CorelDRAW 2020 (64-Bit) -->
<svg xmlns="http://www.w3.org/2000/svg" xml:space="preserve" width="150px" height="50px" version="1.1" style="shape-rendering:geometricPrecision; text-rendering:geometricPrecision; image-rendering:optimizeQuality; fill-rule:evenodd; clip-rule:evenodd"
viewBox="0 0 600 200"
 xmlns:xlink="http://www.w3.org/1999/xlink"
 xmlns:xodm="http://www.corel.com/coreldraw/odm/2003">
 <defs>
  <style type="text/css">
   <![CDATA[
    .fil0 {fill:#7690C9;fill-rule:nonzero}
   ]]>
  </style>
 </defs>
 <g id="Слой_x0020_1">
  <metadata id="CorelCorpID_0Corel-Layer"/>
  <path class="fil0" d="M24.3 149.7l0 -105.7 14 0 0 43.6 54.6 0 0 -43.6 14 0 0 105.7 -14 0 0 -49.7 -54.6 0 0 49.7 -14 0zm105.4 0l0 -105.7 14 0 0 93.3 51.9 0 0 12.4 -65.9 0zm78.3 -51.4c0,-17.5 4.7,-31.3 14.2,-41.2 9.4,-9.9 21.5,-14.8 36.4,-14.8 9.8,0 18.6,2.3 26.4,7 7.8,4.6 13.8,11.1 17.9,19.4 4.1,8.3 6.2,17.8 6.2,28.3 0,10.7 -2.2,20.3 -6.5,28.8 -4.3,8.4 -10.5,14.8 -18.4,19.1 -7.9,4.4 -16.5,6.5 -25.6,6.5 -10,0 -18.9,-2.4 -26.7,-7.2 -7.8,-4.7 -13.8,-11.3 -17.8,-19.6 -4.1,-8.3 -6.1,-17.1 -6.1,-26.3zm14.5 0.2c0,12.7 3.4,22.7 10.2,30 6.9,7.3 15.5,11 25.8,11 10.5,0 19.1,-3.7 26,-11.1 6.7,-7.3 10.1,-17.8 10.1,-31.4 0,-8.6 -1.4,-16.1 -4.3,-22.5 -2.9,-6.4 -7.2,-11.3 -12.8,-14.8 -5.6,-3.6 -11.8,-5.3 -18.8,-5.3 -9.9,0 -18.4,3.4 -25.5,10.1 -7.2,6.8 -10.7,18.2 -10.7,34zm154 9.7l0 -12.4 44.7 0 0 39.2c-6.9,5.4 -13.9,9.6 -21.2,12.3 -7.3,2.8 -14.8,4.1 -22.5,4.1 -10.4,0 -19.8,-2.2 -28.3,-6.6 -8.5,-4.4 -14.9,-10.9 -19.2,-19.3 -4.3,-8.4 -6.5,-17.8 -6.5,-28.1 0,-10.3 2.2,-19.9 6.5,-28.8 4.3,-8.9 10.4,-15.5 18.5,-19.8 8.1,-4.4 17.4,-6.5 27.9,-6.5 7.6,0 14.5,1.2 20.7,3.7 6.2,2.5 11,5.9 14.5,10.3 3.5,4.4 6.2,10.2 8,17.3l-12.6 3.5c-1.6,-5.4 -3.6,-9.6 -5.9,-12.7 -2.4,-3.1 -5.7,-5.6 -10.1,-7.4 -4.4,-1.9 -9.2,-2.8 -14.5,-2.8 -6.4,0 -11.9,1 -16.6,2.9 -4.6,2 -8.4,4.5 -11.2,7.7 -2.9,3.2 -5.1,6.7 -6.7,10.5 -2.7,6.6 -4,13.7 -4,21.3 0,9.4 1.6,17.3 4.8,23.7 3.3,6.3 8,11.1 14.2,14.1 6.2,3.1 12.7,4.7 19.7,4.7 6,0 11.9,-1.2 17.7,-3.6 5.7,-2.3 10.1,-4.8 13.1,-7.5l0 -19.8 -31 0zm67.7 41.5l0 -105.7 14 0 0 105.7 -14 0zm38.5 0l0 -105.7 14.4 0 55.4 83 0 -83 13.4 0 0 105.7 -14.4 0 -55.4 -82.9 0 82.9 -13.4 0z"/>
 </g>
</svg>
