<?xml version="1.0" encoding="UTF-8"?>
<!DOCTYPE svg PUBLIC "-//W3C//DTD SVG 1.1//EN" "http://www.w3.org/Graphics/SVG/1.1/DTD/svg11.dtd">
<svg xmlns="http://www.w3.org/2000/svg" xml:space="preserve" width="120px" height="40px" version="1.1" style="shape-rendering:geometricPrecision; text-rendering:geometricPrecision; image-rendering:optimizeQuality; fill-rule:evenodd; clip-rule:evenodd"
viewBox="0 0 600 200"
 xmlns:xlink="http://www.w3.org/1999/xlink">
 <defs>
  <style type="text/css">
   <![CDATA[
    .fil0 {fill:#FEFEFE}
    .fil1 {fill:#7690C9;fill-rule:nonzero}
   ]]>
  </style>
 </defs>
 <g id="x0020_1">
  <metadata id="Hlogin-0-Layer"/>
  <path class="fil0" d="M33.3 82.2l42.7 0 0 -43.6 25.9 0 0 117.5 -25.9 0 0 -49.7 -42.7 0 0 49.7 -25.9 0 0 -117.5 25.9 0 0 43.6zm105.3 49.7l52 0 0 24.2 -77.8 0 0 -117.5 25.8 0 0 93.3zm52.6 -33.1c0,-16.7 4,-32.9 15.7,-45.2 11,-11.6 25,-16.7 40.8,-16.7 10.5,0 20.4,2.4 29.4,7.8 8.9,5.3 15.6,12.7 20.2,21.9 4.8,9.7 6.8,20.2 6.8,30.9 0,11 -2.2,21.7 -7.2,31.5 -4.7,9.3 -11.6,16.6 -20.8,21.6 -8.8,4.9 -18.4,7.3 -28.5,7.3 -10.6,0 -20.7,-2.5 -29.7,-8.1 -8.8,-5.4 -15.6,-12.8 -20.1,-22.1 -4.4,-9.1 -6.6,-18.8 -6.6,-28.9zm199.4 26.9l0 -11.1 -31 0 0 -24.2 56.6 0 0 47.9 -2.3 1.8c-6.9,5.5 -14.5,10.1 -22.8,13.3 -7.9,2.9 -16.1,4.5 -24.6,4.5 -10.8,0 -21.3,-2.3 -31,-7.4 -9.5,-4.9 -16.8,-12.2 -21.7,-21.8 -4.9,-9.6 -7.1,-20 -7.1,-30.8 0,-11 2.2,-21.5 7,-31.4 4.7,-9.6 11.6,-17.4 21.1,-22.5 9.5,-5 19.9,-7.1 30.7,-7.1 7.8,0 15.6,1.2 22.9,4.1 6.6,2.7 12.5,6.6 16.9,12.1 4.5,5.7 7.3,12.6 9.1,19.6l1.4 5.6 -23.8 6.5 -1.6 -5.5c-1.1,-3.7 -2.7,-7.8 -5,-10.8 -1.9,-2.6 -4.7,-4.3 -7.6,-5.6 -3.9,-1.6 -8.1,-2.3 -12.3,-2.3 -4.8,0 -9.8,0.6 -14.2,2.5 -3.5,1.4 -6.7,3.4 -9.2,6.2 -2.3,2.6 -4.2,5.5 -5.6,8.8 -2.4,6 -3.5,12.4 -3.5,19 0,7.1 0.9,14.6 4.2,21 2.6,5.1 6.3,9 11.5,11.6 5.3,2.6 11,4 17.1,4 5.3,0 10.5,-1.1 15.4,-3.1 3.1,-1.3 6.6,-2.9 9.4,-4.9zm36.7 30.4l0 -117.5 25.9 0 0 117.5 -25.9 0zm108.3 -48.1l0 -69.4 25.3 0 0 117.5 -23.5 0 -46.3 -69.4 0 69.4 -25.3 0 0 -117.5 23.5 0 46.3 69.4zm-318.2 -9c0,9.5 2.1,18.9 8.7,26 5.9,6.2 12.9,9.1 21.4,9.1 8.7,0 15.8,-2.8 21.7,-9.2 6.8,-7.3 8.6,-17.7 8.6,-27.4 0,-6.8 -1,-13.8 -3.8,-20 -2.4,-5.1 -5.7,-9.3 -10.5,-12.3 -4.8,-3 -10.1,-4.4 -15.7,-4.4 -8.4,0 -15.4,2.8 -21.5,8.5 -7.5,7.2 -8.9,20 -8.9,29.7z"/>
  <path class="fil1" d="M13.3 150.2l0 -105.6 14.1 0 0 43.5 54.6 0 0 -43.5 14 0 0 105.6 -14 0 0 -49.7 -54.6 0 0 49.7 -14.1 0zm105.4 0l0 -105.6 14 0 0 93.2 52 0 0 12.4 -66 0zm78.4 -51.4c0,-17.5 4.7,-31.3 14.1,-41.2 9.4,-9.9 21.6,-14.8 36.5,-14.8 9.8,0 18.5,2.3 26.4,7 7.8,4.6 13.8,11.1 17.9,19.4 4.1,8.4 6.2,17.8 6.2,28.3 0,10.7 -2.2,20.3 -6.5,28.8 -4.4,8.4 -10.5,14.8 -18.4,19.1 -7.9,4.4 -16.5,6.6 -25.7,6.6 -9.9,0 -18.8,-2.5 -26.7,-7.3 -7.8,-4.7 -13.7,-11.3 -17.8,-19.6 -4,-8.3 -6,-17.1 -6,-26.3zm14.4 0.2c0,12.7 3.5,22.7 10.3,30 6.8,7.3 15.4,11 25.7,11 10.6,0 19.2,-3.7 26,-11.1 6.8,-7.3 10.2,-17.8 10.2,-31.4 0,-8.6 -1.5,-16.1 -4.4,-22.5 -2.9,-6.4 -7.1,-11.3 -12.7,-14.8 -5.6,-3.6 -11.9,-5.3 -18.8,-5.3 -9.9,0 -18.4,3.4 -25.6,10.2 -7.1,6.7 -10.7,18.1 -10.7,33.9zm154.1 9.7l0 -12.4 44.7 0 0 39.2c-6.9,5.4 -14,9.6 -21.3,12.3 -7.3,2.8 -14.8,4.2 -22.5,4.2 -10.3,0 -19.8,-2.3 -28.2,-6.7 -8.5,-4.4 -14.9,-10.9 -19.2,-19.3 -4.3,-8.4 -6.5,-17.8 -6.5,-28.1 0,-10.3 2.1,-19.9 6.4,-28.8 4.3,-8.9 10.5,-15.5 18.6,-19.8 8,-4.4 17.3,-6.5 27.9,-6.5 7.6,0 14.5,1.2 20.7,3.7 6.1,2.5 11,5.9 14.5,10.3 3.5,4.4 6.1,10.2 8,17.3l-12.6 3.5c-1.6,-5.4 -3.6,-9.6 -6,-12.7 -2.3,-3.1 -5.7,-5.5 -10,-7.4 -4.4,-1.8 -9.2,-2.8 -14.6,-2.8 -6.3,0 -11.9,1 -16.5,3 -4.7,1.9 -8.4,4.5 -11.3,7.7 -2.8,3.1 -5,6.6 -6.6,10.4 -2.7,6.6 -4.1,13.7 -4.1,21.3 0,9.4 1.7,17.3 4.9,23.7 3.2,6.4 8,11.1 14.1,14.1 6.2,3.1 12.8,4.7 19.8,4.7 6,0 11.9,-1.2 17.7,-3.5 5.7,-2.4 10.1,-4.9 13,-7.6l0 -19.8 -30.9 0zm67.7 41.5l0 -105.6 14 0 0 105.6 -14 0zm38.4 0l0 -105.6 14.4 0 55.4 82.9 0 -82.9 13.5 0 0 105.6 -14.4 0 -55.4 -82.9 0 82.9 -13.5 0z"/>
 </g>
</svg>
