<?xml version="1.0" encoding="UTF-8"?>
<!DOCTYPE svg PUBLIC "-//W3C//DTD SVG 1.1//EN" "http://www.w3.org/Graphics/SVG/1.1/DTD/svg11.dtd">
<svg xmlns="http://www.w3.org/2000/svg" xml:space="preserve" width="30px" height="30px" version="1.1" style="shape-rendering:geometricPrecision; text-rendering:geometricPrecision; image-rendering:optimizeQuality; fill-rule:evenodd; clip-rule:evenodd"
     viewBox="0 0 300 300"
     xmlns:xlink="http://www.w3.org/1999/xlink"
>
 <defs>
  <style type="text/css">
   <![CDATA[
    .fil0 {fill:white;fill-rule:nonzero}
   ]]>
  </style>
 </defs>
 <g id="x0020_1">
  <metadata id="Hlogin-Layer"/>
  <path class="fil0" d="M153.1 58.5c17.5,0 33.3,7.1 44.8,18.6 11.5,11.4 18.6,27.3 18.6,44.7 0,17.5 -7.1,33.4 -18.6,44.8 -11.5,11.5 -27.3,18.6 -44.8,18.6 -17.4,0 -33.2,-7.1 -44.7,-18.6 -11.5,-11.5 -18.6,-27.3 -18.6,-44.8 0,-17.4 7.1,-33.2 18.6,-44.7 11.5,-11.5 27.3,-18.6 44.7,-18.6zm28.6 34.8c-7.3,-7.3 -17.4,-11.8 -28.6,-11.8 -11.1,0 -21.2,4.5 -28.5,11.8 -7.3,7.3 -11.8,17.4 -11.8,28.5 0,11.2 4.5,21.3 11.8,28.6 7.3,7.3 17.4,11.8 28.5,11.8 11.2,0 21.3,-4.5 28.6,-11.8 7.2,-7.3 11.8,-17.4 11.8,-28.6 0,-11.1 -4.6,-21.2 -11.8,-28.5z"/>
  <path class="fil0" d="M153.1 172.4c30.3,0 58,9.9 79,26.2 21.6,16.7 36.2,40.2 39.3,66.7l0.4 5.4 0.2 5.2 0 12 -237.7 0c0,-4 -0.5,-10.7 0,-14.4 0.8,-28.4 14.6,-53.9 36.5,-72.2 21.3,-17.8 50.4,-28.9 82.3,-28.9zm64.3 45.1c-16.9,-13.1 -39.4,-21.1 -64.3,-21.1 -26.1,0 -49.7,8.9 -66.9,23.3 -14.1,11.7 -23.8,27.1 -26.9,44.2l187.6 0c-3.3,-18.2 -14,-34.4 -29.5,-46.4z"/>
 </g>
</svg>
