<?xml version="1.0" encoding="UTF-8"?>
<!DOCTYPE svg PUBLIC "-//W3C//DTD SVG 1.1//EN" "http://www.w3.org/Graphics/SVG/1.1/DTD/svg11.dtd">
<svg xmlns="http://www.w3.org/2000/svg" xml:space="preserve" width="17px" height="17px" version="1.1" style="shape-rendering:geometricPrecision; text-rendering:geometricPrecision; image-rendering:optimizeQuality; fill-rule:evenodd; clip-rule:evenodd"
viewBox="0 0 17 17"
 xmlns:xlink="http://www.w3.org/1999/xlink">
 <defs>
  <style type="text/css">
   <![CDATA[
    .str0 {stroke:gray;stroke-miterlimit:22.9256}
    .fil1 {fill:#009846}
    .fil2 {fill:#5FE671}
    .fil0 {fill:white}
   ]]>
  </style>
 </defs>
 <g id="x0020_1">
  <metadata id="Hlogin-Layer"/>
  <rect class="fil0" x="3.29" y="4.1" width="8.57" height="8.68"/>
  <rect class="fil1" x="4.14" y="5.07" width="6.86" height="6.86"/>
  <rect class="fil2" x="4.14" y="5.07" width="0.89" height="6.86"/>
  <rect class="fil2" x="4.14" y="5.07" width="6.86" height="0.86"/>
  <path class="fil0 str0" d="M3.71 2.07l9.58 0c0.94,0 1.71,0.77 1.71,1.72l0 9.42c0,0.95 -0.77,1.72 -1.71,1.72l-9.58 0c-0.94,0 -1.71,-0.77 -1.71,-1.72l0 -9.42c0,-0.95 0.77,-1.72 1.71,-1.72z"/>
  <path class="fil1" d="M5.15 3.5l6.7 0c0.85,0 1.55,0.7 1.55,1.55l0 6.79c0,0.85 -0.7,1.55 -1.55,1.55l-6.7 0c-0.85,0 -1.54,-0.7 -1.54,-1.55l0 -6.79c0,-0.85 0.69,-1.55 1.54,-1.55z"/>
 </g>
</svg>
