<?xml version="1.0" encoding="UTF-8"?>
<!DOCTYPE svg PUBLIC "-//W3C//DTD SVG 1.1//EN" "http://www.w3.org/Graphics/SVG/1.1/DTD/svg11.dtd">
<svg xmlns="http://www.w3.org/2000/svg" xml:space="preserve" width="22px" height="22px" version="1.1" style="shape-rendering:geometricPrecision; text-rendering:geometricPrecision; image-rendering:optimizeQuality; fill-rule:evenodd; clip-rule:evenodd"
viewBox="0 0 220 220"
 xmlns:xlink="http://www.w3.org/1999/xlink"
>
 <defs>
  <style type="text/css">
   <![CDATA[
    .fil1 {fill:#2B2A29}
    .fil0 {fill:#2B2A29;fill-rule:nonzero}
   ]]>
  </style>
 </defs>
 <g id="x0020_1">
  <metadata id="Hlogin-Layer"/>
  <path class="fil0" d="M84.3 95l19.6 45.1 36.3 -78.5c2.2,-4.8 4.4,-8.2 6.5,-10.2 2.2,-1.9 5.5,-2.9 9.8,-2.9 4.2,0 7.7,1 10.6,3.2 2.9,2.1 4.3,4.6 4.3,7.5 0,1.1 -0.2,2.3 -0.7,3.8 -0.6,1.5 -1.1,2.9 -1.8,4.2 -0.7,1.3 -1.5,2.7 -2.3,4.4l-39.2 78.7c-0.8,1.7 -2,3.9 -3.4,6.5 -1.4,2.7 -2.9,4.9 -4.6,6.8 -1.7,1.9 -3.9,3.3 -6.4,4.4 -2.5,1 -5.5,1.5 -9.1,1.5 -4.6,0 -8.3,-0.8 -11,-2.4 -2.8,-1.6 -4.8,-3.4 -6.1,-5.4 -1.3,-1.9 -3.7,-5.7 -6.6,-11.4l-24.3 -47.2c-0.8,-1.5 -1.5,-3 -2.3,-4.4 -0.7,-1.5 -1.3,-3 -1.9,-4.5 -0.5,-1.6 -0.7,-2.9 -0.7,-4 0,-1.7 0.7,-3.4 2,-5.1 1.3,-1.7 3.2,-3.1 5.6,-4.2 2.4,-1 5,-1.6 7.8,-1.6 5.4,0 9.1,1.2 11.1,3.6 2.1,2.4 4.3,6.5 6.8,12.1z"/>
  <g>
   <path class="fil1" d="M-0.2 -0.6l220.1 0 0 220.5 -220.1 0 0 -220.5zm210.1 10l-200.1 0 0 200.5 200.1 0 0 -200.5z"/>
  </g>
 </g>
</svg>
