<?xml version="1.0" encoding="UTF-8"?>
<!DOCTYPE svg PUBLIC "-//W3C//DTD SVG 1.1//EN" "http://www.w3.org/Graphics/SVG/1.1/DTD/svg11.dtd">
<svg xmlns="http://www.w3.org/2000/svg" xml:space="preserve" width="100px" height="100px" version="1.1" style="shape-rendering:geometricPrecision; text-rendering:geometricPrecision; image-rendering:optimizeQuality; fill-rule:evenodd; clip-rule:evenodd"
viewBox="0 0 1000 1000"
 xmlns:xlink="http://www.w3.org/1999/xlink"
>
 <defs>
  <style type="text/css">
   <![CDATA[
    .fil0 {fill:#E6E6E6;fill-rule:nonzero;fill-opacity:0.501961}
   ]]>
  </style>
 </defs>
 <g id="x0020_1">
  <metadata id="Hlogin-Layer"/>
  <path class="fil0" d="M226.4 735.37l15.22 11.14c-3.31,5.07 -6.62,9.28 -9.9,12.56 -5.4,5.41 -10.44,8.74 -15.16,10.01 -4.7,1.25 -9.02,1.11 -13.04,-0.47 -4.01,-1.59 -10.49,-6.88 -19.46,-15.84l-50.74 -50.75 -11.03 11.03 -11.54 -11.54 11.03 -11.03 -21.78 -21.78 5.97 -23.9 30.74 30.75 14.94 -14.93 11.54 11.53 -14.94 14.94 51.6 51.59c4.27,4.27 7.26,6.76 9.02,7.44 1.72,0.7 3.53,0.82 5.46,0.37 1.89,-0.49 3.95,-1.81 6.16,-4.02 1.64,-1.64 3.62,-4.02 5.91,-7.1zm59.63 -90l17.48 -13.41c6.56,11.37 9.05,22.86 7.43,34.37 -1.61,11.51 -7.49,22.37 -17.7,32.58 -12.84,12.84 -26.98,19.07 -42.43,18.67 -15.41,-0.37 -30.29,-7.72 -44.57,-22.01 -14.77,-14.76 -22.46,-30.03 -23,-45.79 -0.57,-15.78 5.23,-29.72 17.37,-41.86 11.73,-11.74 25.31,-17.34 40.76,-16.77 15.44,0.56 30.43,8.09 44.94,22.6 0.88,0.87 2.18,2.23 3.88,4.04l-65.6 65.59c10.21,9.08 20.34,13.78 30.38,13.98 10.01,0.22 18.72,-3.34 26.05,-10.67 5.46,-5.46 8.68,-11.57 9.64,-18.3 0.99,-6.76 -0.56,-14.42 -4.63,-23.02zm-72.81 24.95l49.05 -49.05c-8.06,-6.76 -15.5,-10.41 -22.29,-11.03 -10.47,-1.02 -19.52,2.26 -27.07,9.82 -6.84,6.84 -10.29,14.87 -10.38,24.12 -0.05,9.22 3.51,17.93 10.69,26.14zm135.63 -30.75l-88.08 -88.08 13.41 -13.4 12.44 12.44c-1.56,-7.04 -1.36,-14.2 0.62,-21.38 1.96,-7.21 5.86,-13.72 11.71,-19.57 6.51,-6.51 13.21,-10.5 20.06,-11.97 6.87,-1.44 13.57,-0.62 20.14,2.55 -3.26,-17.28 0.7,-31.48 11.9,-42.69 8.77,-8.76 17.93,-13.12 27.47,-12.98 9.56,0.12 19.37,5.18 29.41,15.22l60.39 60.39 -14.94 14.93 -55.43 -55.44c-5.94,-5.94 -10.75,-9.73 -14.34,-11.39 -3.59,-1.67 -7.44,-2.01 -11.63,-1.05 -4.16,0.93 -7.95,3.14 -11.37,6.56 -6.22,6.22 -9.3,13.44 -9.3,21.64 0.02,8.23 4.58,16.86 13.63,25.91l51.11 51.11 -14.94 14.93 -57.16 -57.16c-6.62,-6.62 -12.81,-10.38 -18.55,-11.26 -5.74,-0.87 -11.4,1.44 -16.92,6.96 -4.18,4.18 -6.95,9.17 -8.31,14.93 -1.36,5.77 -0.71,11.57 1.95,17.45 2.66,5.83 8,12.76 16.01,20.77l45.65 45.65 -14.93 14.93zm175.13 -107.59l-121.85 -121.85 13.58 -13.58 11.57 11.57c-1.27,-7.66 -1.02,-14.65 0.79,-20.93 1.78,-6.25 5.54,-12.28 11.29,-18.02 7.52,-7.52 16.06,-12.22 25.68,-14.09 9.58,-1.89 19.37,-0.76 29.33,3.32 9.96,4.13 19.12,10.35 27.52,18.75 8.97,8.97 15.44,18.67 19.43,29.1 3.96,10.41 4.78,20.62 2.46,30.63 -2.31,9.96 -6.87,18.36 -13.66,25.15 -4.98,4.98 -10.49,8.4 -16.52,10.24 -6.05,1.87 -11.9,2.46 -17.65,1.81l42.97 42.96 -14.94 14.94zm-63.69 -90.85c11.28,11.28 21.92,17.34 31.87,18.18 9.99,0.83 18.25,-2.01 24.75,-8.51 6.62,-6.62 9.48,-15.08 8.57,-25.37 -0.88,-10.32 -7.18,-21.33 -18.92,-33.06 -11.2,-11.21 -21.86,-17.29 -32.05,-18.25 -10.18,-0.96 -18.44,1.76 -24.83,8.15 -6.34,6.33 -8.97,14.9 -7.92,25.68 1.05,10.83 7.21,21.86 18.53,33.18zm123.97 -36.97l-121.51 -121.51 14.93 -14.93 121.51 121.5 -14.93 14.94zm84.54 -106.6c-0.82,10.26 -2.86,18.92 -6.03,25.99 -3.16,7.07 -7.69,13.52 -13.57,19.4 -9.68,9.68 -19.46,14.77 -29.39,15.25 -9.9,0.51 -18.53,-2.92 -25.85,-10.24 -4.3,-4.3 -7.24,-9.22 -8.86,-14.74 -1.58,-5.54 -1.84,-10.94 -0.81,-16.26 1.04,-5.34 2.96,-10.55 5.85,-15.64 2.18,-3.71 5.88,-8.88 11.06,-15.53 10.64,-13.46 17.82,-24.1 21.52,-31.76 -1.98,-2.1 -3.25,-3.42 -3.79,-3.96 -6.05,-6.06 -11.74,-8.91 -17.05,-8.57 -7.19,0.45 -14.54,4.46 -22.06,11.99 -7.05,7.04 -11.01,13.49 -11.88,19.29 -0.91,5.83 0.99,12.64 5.65,20.53l-16.63 12.56c-4.92,-7.58 -7.8,-14.82 -8.6,-21.72 -0.79,-6.9 0.68,-14.26 4.36,-22.12 3.68,-7.8 9.33,-15.56 16.91,-23.14 7.53,-7.52 14.54,-12.78 21.05,-15.72 6.47,-2.92 12.16,-4.19 17.05,-3.71 4.9,0.49 9.85,2.32 14.85,5.52 3.03,2.06 7.86,6.39 14.46,12.98l19.8 19.8c13.83,13.83 22.88,22.26 27.2,25.34 4.31,3.11 9.08,5.4 14.29,6.99l-15.62 15.61c-4.63,-1.64 -9.27,-4.35 -13.91,-8.14zm-34.28 -31.91c-3.23,7.64 -9.5,17.65 -18.84,30.04 -5.29,7.04 -8.66,12.39 -10.1,16.04 -1.44,3.65 -1.78,7.21 -1.07,10.69 0.73,3.5 2.38,6.56 4.98,9.16 3.93,3.93 8.74,5.74 14.39,5.35 5.66,-0.4 11.4,-3.48 17.2,-9.28 5.74,-5.74 9.62,-12.11 11.6,-19.12 1.98,-6.96 1.86,-13.69 -0.37,-20.11 -1.75,-4.98 -5.91,-10.72 -12.45,-17.25l-5.34 -5.52zm101.26 -39.65l15.21 11.14c-3.3,5.06 -6.62,9.28 -9.9,12.56 -5.4,5.4 -10.43,8.74 -15.15,10.01 -4.7,1.25 -9.03,1.11 -13.05,-0.48 -4.01,-1.58 -10.49,-6.87 -19.45,-15.84l-50.75 -50.74 -11.03 11.03 -11.54 -11.54 11.03 -11.03 -21.78 -21.78 5.97 -23.9 30.75 30.75 14.93 -14.94 11.54 11.54 -14.93 14.94 51.59 51.59c4.27,4.27 7.27,6.76 9.02,7.43 1.73,0.71 3.53,0.83 5.46,0.37 1.9,-0.48 3.96,-1.81 6.16,-4.01 1.65,-1.64 3.62,-4.02 5.92,-7.1zm59.62 -90l17.48 -13.41c6.56,11.37 9.05,22.85 7.44,34.36 -1.62,11.52 -7.5,22.38 -17.71,32.59 -12.84,12.84 -26.98,19.06 -42.42,18.67 -15.42,-0.37 -30.3,-7.73 -44.58,-22.01 -14.76,-14.76 -22.46,-30.04 -23,-45.79 -0.56,-15.78 5.23,-29.73 17.37,-41.86 11.74,-11.74 25.32,-17.34 40.76,-16.77 15.44,0.56 30.43,8.08 44.94,22.59 0.88,0.88 2.18,2.24 3.88,4.05l-65.59 65.59c10.21,9.08 20.33,13.77 30.37,13.97 10.01,0.23 18.72,-3.33 26.05,-10.66 5.46,-5.46 8.69,-11.57 9.65,-18.3 0.99,-6.76 -0.57,-14.42 -4.64,-23.02zm-72.8 24.94l49.04 -49.04c-8.06,-6.76 -15.5,-10.41 -22.29,-11.03 -10.46,-1.02 -19.51,2.26 -27.07,9.81 -6.84,6.85 -10.29,14.88 -10.38,24.13 -0.05,9.22 3.51,17.93 10.7,26.13zm-407.79 740.73l-50.77 -50.76 5.66 -5.66 4.82 4.82c-0.53,-3.19 -0.42,-6.11 0.33,-8.72 0.74,-2.61 2.31,-5.12 4.7,-7.51 3.14,-3.13 6.7,-5.09 10.7,-5.87 4,-0.79 8.08,-0.32 12.23,1.38 4.15,1.72 7.96,4.32 11.46,7.81 3.74,3.74 6.44,7.78 8.1,12.13 1.65,4.34 1.99,8.59 1.02,12.76 -0.96,4.15 -2.86,7.65 -5.69,10.48 -2.07,2.07 -4.37,3.5 -6.88,4.27 -2.52,0.77 -4.96,1.02 -7.36,0.75l17.91 17.9 -6.23 6.22zm-26.54 -37.85c4.71,4.7 9.14,7.23 13.29,7.58 4.16,0.34 7.6,-0.84 10.31,-3.55 2.76,-2.76 3.95,-6.28 3.57,-10.57 -0.37,-4.3 -3,-8.89 -7.89,-13.78 -4.66,-4.66 -9.1,-7.2 -13.35,-7.6 -4.24,-0.4 -7.68,0.73 -10.34,3.4 -2.64,2.64 -3.74,6.21 -3.31,10.7 0.44,4.51 3.01,9.11 7.72,13.82zm51.73 -15.47l-36.7 -36.7 5.59 -5.58 5.62 5.61c-1.18,-4.02 -1.58,-7.07 -1.19,-9.1 0.37,-2.06 1.29,-3.8 2.74,-5.25 2.1,-2.1 4.9,-3.57 8.37,-4.43l3.52 7.95c-2.35,0.67 -4.28,1.75 -5.8,3.26 -1.35,1.35 -2.15,2.98 -2.41,4.86 -0.26,1.89 0.11,3.79 1.1,5.7 1.5,2.9 3.58,5.65 6.21,8.28l19.17 19.17 -6.22 6.23zm36.77 -60.53l7.28 -5.59c2.73,4.74 3.77,9.53 3.1,14.32 -0.67,4.8 -3.12,9.33 -7.38,13.58 -5.35,5.35 -11.24,7.94 -17.67,7.78 -6.43,-0.15 -12.63,-3.22 -18.58,-9.17 -6.15,-6.15 -9.36,-12.52 -9.58,-19.08 -0.23,-6.58 2.18,-12.39 7.24,-17.44 4.89,-4.89 10.55,-7.23 16.98,-6.99 6.43,0.23 12.68,3.37 18.73,9.41 0.36,0.37 0.91,0.94 1.61,1.69l-27.33 27.33c4.25,3.78 8.48,5.74 12.66,5.82 4.17,0.09 7.8,-1.39 10.85,-4.44 2.28,-2.28 3.62,-4.82 4.02,-7.63 0.41,-2.81 -0.24,-6.01 -1.93,-9.59zm-30.34 10.39l20.44 -20.43c-3.36,-2.82 -6.46,-4.34 -9.29,-4.6 -4.36,-0.42 -8.13,0.95 -11.28,4.09 -2.85,2.85 -4.29,6.2 -4.32,10.05 -0.02,3.85 1.46,7.47 4.45,10.89zm56.37 -12.66l-50.63 -50.63 6.23 -6.23 50.62 50.63 -6.22 6.23zm-27.71 -59.41l-7.07 -7.07 6.23 -6.23 7.07 7.07 -6.23 6.23zm43.56 43.55l-36.7 -36.69 6.23 -6.23 36.7 36.7 -6.23 6.22zm15.71 -15.71l-36.7 -36.69 5.59 -5.59 5.19 5.18c-0.65,-2.93 -0.57,-5.91 0.26,-8.91 0.81,-3 2.44,-5.71 4.87,-8.15 2.71,-2.71 5.51,-4.37 8.36,-4.99 2.86,-0.6 5.66,-0.26 8.39,1.06 -1.35,-7.2 0.3,-13.11 4.96,-17.78 3.66,-3.65 7.47,-5.47 11.45,-5.41 3.98,0.05 8.07,2.16 12.25,6.34l25.16 25.16 -6.22 6.22 -23.1 -23.1c-2.47,-2.47 -4.48,-4.05 -5.97,-4.74 -1.5,-0.7 -3.1,-0.84 -4.85,-0.44 -1.73,0.39 -3.31,1.31 -4.73,2.74 -2.6,2.59 -3.88,5.59 -3.88,9.01 0.01,3.43 1.91,7.03 5.68,10.8l21.29 21.29 -6.22 6.23 -23.81 -23.82c-2.76,-2.76 -5.34,-4.33 -7.74,-4.69 -2.39,-0.37 -4.75,0.6 -7.04,2.9 -1.75,1.74 -2.9,3.81 -3.47,6.22 -0.56,2.4 -0.29,4.82 0.82,7.27 1.1,2.43 3.33,5.31 6.67,8.65l19.02 19.02 -6.23 6.22zm15.35 -102.46l-7.07 -7.07 6.22 -6.22 7.07 7.07 -6.22 6.22zm43.55 43.56l-36.69 -36.7 6.22 -6.22 36.7 36.7 -6.23 6.22zm15.72 -15.71l-36.7 -36.7 5.58 -5.58 5.21 5.21c-1.31,-6.69 0.59,-12.57 5.67,-17.65 2.22,-2.21 4.65,-3.84 7.29,-4.9 2.63,-1.06 5.08,-1.4 7.28,-1.04 2.2,0.37 4.38,1.25 6.52,2.65 1.38,0.93 3.51,2.83 6.38,5.71l22.54 22.53 -6.23 6.22 -22.29 -22.29c-2.54,-2.54 -4.67,-4.2 -6.4,-4.96 -1.74,-0.77 -3.6,-0.91 -5.58,-0.44 -1.97,0.48 -3.79,1.55 -5.44,3.2 -2.64,2.64 -4.08,5.75 -4.32,9.36 -0.24,3.6 2,7.74 6.69,12.43l20.02 20.03 -6.22 6.22zm58.7 -67.89c-0.34,4.28 -1.19,7.88 -2.51,10.83 -1.32,2.94 -3.21,5.63 -5.66,8.08 -4.03,4.03 -8.11,6.15 -12.24,6.35 -4.13,0.22 -7.72,-1.21 -10.77,-4.26 -1.8,-1.79 -3.02,-3.84 -3.69,-6.14 -0.67,-2.31 -0.77,-4.56 -0.34,-6.78 0.43,-2.23 1.23,-4.39 2.43,-6.52 0.91,-1.54 2.46,-3.7 4.61,-6.47 4.43,-5.61 7.43,-10.04 8.97,-13.23 -0.82,-0.87 -1.35,-1.43 -1.58,-1.65 -2.52,-2.52 -4.89,-3.71 -7.1,-3.57 -3,0.19 -6.06,1.86 -9.2,5 -2.93,2.93 -4.58,5.62 -4.95,8.03 -0.37,2.43 0.41,5.27 2.36,8.56l-6.93 5.23c-2.05,-3.16 -3.25,-6.17 -3.58,-9.05 -0.33,-2.88 0.28,-5.94 1.81,-9.22 1.54,-3.25 3.89,-6.48 7.05,-9.64 3.13,-3.13 6.06,-5.32 8.77,-6.55 2.7,-1.21 5.07,-1.74 7.1,-1.54 2.04,0.2 4.11,0.96 6.19,2.3 1.26,0.86 3.28,2.66 6.02,5.4l8.25 8.26c5.76,5.76 9.54,9.27 11.34,10.55 1.79,1.3 3.78,2.25 5.95,2.92l-6.5 6.5c-1.94,-0.68 -3.87,-1.82 -5.8,-3.39zm-14.28 -13.3c-1.35,3.18 -3.97,7.36 -7.85,12.52 -2.21,2.93 -3.61,5.16 -4.21,6.68 -0.6,1.52 -0.75,3.01 -0.45,4.46 0.31,1.46 0.99,2.73 2.07,3.81 1.64,1.64 3.65,2.4 6.01,2.23 2.35,-0.16 4.74,-1.45 7.16,-3.86 2.39,-2.4 4,-5.05 4.83,-7.97 0.82,-2.9 0.78,-5.71 -0.15,-8.38 -0.73,-2.07 -2.46,-4.47 -5.19,-7.19l-2.22 -2.3zm34.16 2.61l-36.7 -36.7 5.59 -5.59 5.62 5.62c-1.18,-4.03 -1.58,-7.07 -1.19,-9.11 0.37,-2.05 1.3,-3.79 2.74,-5.24 2.1,-2.1 4.9,-3.57 8.37,-4.43l3.52 7.95c-2.35,0.66 -4.28,1.75 -5.79,3.26 -1.36,1.35 -2.16,2.98 -2.42,4.86 -0.26,1.89 0.11,3.79 1.1,5.7 1.51,2.89 3.58,5.65 6.21,8.28l19.17 19.17 -6.22 6.23zm37.44 -9.23l-6.46 -5.04c1.73,-1 3.1,-2 4.12,-3.01 1.39,-1.39 2.26,-2.74 2.62,-4.02 0.38,-1.3 0.42,-2.63 0.12,-3.98 -0.23,-1.02 -1.14,-3.2 -2.74,-6.54 -0.23,-0.46 -0.56,-1.15 -0.97,-2.08l-50.75 -22.88 6.65 -6.65 28.85 13.53c3.68,1.67 7.39,3.62 11.15,5.8 -2.08,-3.51 -3.98,-7.12 -5.71,-10.82l-13.57 -29.23 6.21 -6.21 23.46 51.21c2.52,5.51 4.11,9.44 4.8,11.79 0.93,3.15 1.15,5.92 0.68,8.3 -0.48,2.39 -1.72,4.57 -3.7,6.55 -1.2,1.2 -2.79,2.3 -4.76,3.28zm64.86 -93.08l-4.65 -4.65c1.3,5.94 -0.31,11.17 -4.82,15.68 -2.92,2.93 -6.41,4.81 -10.46,5.64 -4.06,0.84 -8.21,0.49 -12.44,-1.03 -4.23,-1.54 -8.21,-4.18 -11.96,-7.93 -3.65,-3.66 -6.35,-7.58 -8.12,-11.77 -1.74,-4.2 -2.2,-8.31 -1.34,-12.33 0.83,-4.02 2.78,-7.55 5.78,-10.55 2.22,-2.21 4.66,-3.71 7.31,-4.5 2.65,-0.79 5.28,-0.97 7.86,-0.56l-18.21 -18.2 6.22 -6.23 50.63 50.63 -5.8 5.8zm-37.95 1.36c4.69,4.69 9.18,7.2 13.49,7.53 4.3,0.34 7.8,-0.85 10.5,-3.55 2.72,-2.72 3.92,-6.14 3.62,-10.27 -0.32,-4.11 -2.75,-8.45 -7.3,-12.99 -4.99,-5 -9.64,-7.71 -13.92,-8.11 -4.29,-0.41 -7.84,0.81 -10.68,3.65 -2.77,2.77 -3.96,6.2 -3.57,10.31 0.4,4.11 3.01,8.58 7.86,13.43zm72.97 -45.57c-0.34,4.28 -1.19,7.89 -2.51,10.84 -1.32,2.94 -3.21,5.63 -5.66,8.08 -4.03,4.03 -8.11,6.15 -12.24,6.35 -4.13,0.21 -7.72,-1.21 -10.77,-4.26 -1.8,-1.8 -3.02,-3.84 -3.69,-6.14 -0.66,-2.31 -0.77,-4.56 -0.34,-6.78 0.43,-2.23 1.23,-4.39 2.43,-6.52 0.91,-1.54 2.46,-3.7 4.61,-6.47 4.43,-5.61 7.43,-10.04 8.97,-13.23 -0.82,-0.87 -1.35,-1.43 -1.58,-1.65 -2.52,-2.52 -4.89,-3.71 -7.1,-3.57 -3,0.19 -6.06,1.86 -9.2,4.99 -2.93,2.94 -4.58,5.63 -4.95,8.04 -0.37,2.43 0.42,5.27 2.36,8.56l-6.93 5.23c-2.05,-3.16 -3.25,-6.18 -3.58,-9.05 -0.33,-2.88 0.28,-5.94 1.81,-9.22 1.54,-3.25 3.89,-6.48 7.05,-9.64 3.14,-3.13 6.06,-5.33 8.77,-6.55 2.7,-1.21 5.07,-1.75 7.1,-1.54 2.05,0.2 4.11,0.96 6.2,2.29 1.25,0.87 3.27,2.67 6.01,5.42l8.25 8.24c5.76,5.77 9.54,9.28 11.34,10.56 1.79,1.3 3.78,2.25 5.95,2.91l-6.5 6.51c-1.94,-0.69 -3.87,-1.82 -5.8,-3.4zm-14.28 -13.29c-1.35,3.18 -3.97,7.36 -7.85,12.52 -2.21,2.93 -3.61,5.16 -4.21,6.68 -0.6,1.52 -0.74,3.01 -0.45,4.45 0.31,1.47 0.99,2.74 2.08,3.82 1.63,1.64 3.64,2.4 6,2.23 2.35,-0.16 4.74,-1.45 7.16,-3.87 2.39,-2.39 4,-5.04 4.83,-7.96 0.82,-2.9 0.78,-5.71 -0.15,-8.38 -0.73,-2.07 -2.46,-4.47 -5.18,-7.19l-2.23 -2.3zm42.19 -16.52l6.34 4.64c-1.38,2.11 -2.76,3.87 -4.13,5.24 -2.25,2.25 -4.35,3.64 -6.32,4.17 -1.95,0.51 -3.75,0.46 -5.43,-0.2 -1.67,-0.66 -4.37,-2.87 -8.1,-6.6l-21.15 -21.15 -4.6 4.6 -4.8 -4.81 4.59 -4.59 -9.07 -9.08 2.49 -9.96 12.81 12.81 6.22 -6.22 4.81 4.81 -6.23 6.22 21.5 21.5c1.78,1.78 3.03,2.81 3.76,3.1 0.72,0.29 1.47,0.34 2.27,0.15 0.79,-0.2 1.65,-0.76 2.57,-1.67 0.68,-0.68 1.51,-1.68 2.47,-2.96zm31.06 -29.16c-0.34,4.28 -1.19,7.89 -2.51,10.83 -1.32,2.95 -3.2,5.64 -5.66,8.09 -4.03,4.03 -8.1,6.15 -12.24,6.35 -4.13,0.21 -7.72,-1.21 -10.77,-4.27 -1.8,-1.79 -3.02,-3.84 -3.69,-6.13 -0.66,-2.32 -0.77,-4.57 -0.34,-6.78 0.43,-2.23 1.23,-4.4 2.44,-6.52 0.9,-1.54 2.45,-3.7 4.6,-6.47 4.44,-5.61 7.43,-10.04 8.97,-13.23 -0.82,-0.88 -1.35,-1.43 -1.58,-1.65 -2.52,-2.53 -4.89,-3.72 -7.1,-3.58 -3,0.19 -6.06,1.87 -9.19,5 -2.94,2.94 -4.59,5.63 -4.96,8.04 -0.37,2.43 0.42,5.27 2.36,8.56l-6.93 5.23c-2.05,-3.16 -3.25,-6.18 -3.58,-9.05 -0.33,-2.88 0.28,-5.94 1.81,-9.22 1.54,-3.25 3.89,-6.48 7.05,-9.64 3.14,-3.13 6.06,-5.33 8.77,-6.55 2.7,-1.21 5.07,-1.75 7.11,-1.54 2.04,0.2 4.1,0.96 6.18,2.29 1.26,0.86 3.28,2.67 6.02,5.41l8.25 8.25c5.77,5.77 9.54,9.28 11.34,10.56 1.79,1.3 3.79,2.25 5.96,2.91l-6.51 6.51c-1.93,-0.69 -3.87,-1.82 -5.8,-3.4zm-14.28 -13.29c-1.35,3.18 -3.96,7.35 -7.85,12.52 -2.21,2.93 -3.61,5.16 -4.21,6.68 -0.6,1.52 -0.74,3 -0.45,4.45 0.31,1.47 0.99,2.74 2.08,3.82 1.64,1.64 3.64,2.39 6,2.23 2.35,-0.17 4.74,-1.45 7.16,-3.87 2.39,-2.39 4.01,-5.04 4.83,-7.96 0.83,-2.9 0.78,-5.71 -0.15,-8.38 -0.73,-2.08 -2.46,-4.47 -5.19,-7.19l-2.22 -2.3zm-383.23 577.99l-47.79 -25.61 6.51 -6.5 27.03 15.32 9.96 5.81c-0.31,-0.47 -2.19,-3.63 -5.67,-9.47l-15.69 -27.3 6.38 -6.38 26.83 15.78 8.8 5.19 -4.98 -9.2 -14.87 -27.55 6.05 -6.04 25.18 48.21 -6.44 6.43 -27.77 -16.13 -7.76 -4.81 20.82 35.66 -6.59 6.59zm0.91 -88.02l-7.08 -7.07 6.23 -6.23 7.07 7.07 -6.22 6.23zm43.55 43.55l-36.7 -36.69 6.23 -6.23 36.7 36.7 -6.23 6.22zm23.67 -34.76l6.34 4.64c-1.38,2.11 -2.76,3.87 -4.12,5.23 -2.25,2.25 -4.35,3.64 -6.32,4.17 -1.96,0.52 -3.76,0.46 -5.43,-0.2 -1.68,-0.65 -4.37,-2.86 -8.11,-6.6l-21.14 -21.14 -4.6 4.6 -4.81 -4.81 4.6 -4.6 -9.08 -9.07 2.49 -9.96 12.81 12.81 6.22 -6.22 4.81 4.81 -6.22 6.22 21.49 21.49c1.78,1.78 3.03,2.82 3.76,3.11 0.72,0.29 1.48,0.34 2.28,0.15 0.79,-0.2 1.65,-0.76 2.57,-1.67 0.68,-0.69 1.5,-1.68 2.46,-2.96zm11.69 -0.59l-50.63 -50.63 6.22 -6.22 18.22 18.22c-0.49,-6.27 1.46,-11.6 5.87,-16.01 2.7,-2.7 5.58,-4.51 8.65,-5.44 3.07,-0.92 5.96,-0.87 8.71,0.15 2.75,1.03 5.92,3.35 9.5,6.93l23.23 23.23 -6.22 6.22 -23.21 -23.21c-3.1,-3.09 -6.03,-4.68 -8.78,-4.77 -2.76,-0.07 -5.35,1.11 -7.8,3.56 -1.83,1.83 -3.08,4.02 -3.74,6.59 -0.66,2.57 -0.5,5.01 0.44,7.34 0.94,2.31 2.85,4.91 5.73,7.78l20.03 20.03 -6.22 6.23zm18.64 -55.34c-6.77,-6.78 -9.91,-13.69 -9.39,-20.73 0.44,-5.86 2.94,-11.07 7.47,-15.61 5.03,-5.03 10.81,-7.5 17.31,-7.41 6.49,0.09 12.65,3.05 18.46,8.86 4.71,4.72 7.71,9.12 8.99,13.24 1.29,4.11 1.32,8.27 0.11,12.48 -1.2,4.19 -3.42,7.89 -6.61,11.09 -5.14,5.13 -10.93,7.65 -17.39,7.53 -6.45,-0.12 -12.77,-3.28 -18.95,-9.45zm6.38 -6.36c4.69,4.69 9.23,7.18 13.6,7.45 4.4,0.27 8.14,-1.14 11.26,-4.26 3.09,-3.09 4.5,-6.83 4.21,-11.24 -0.29,-4.39 -2.84,-8.99 -7.64,-13.78 -4.52,-4.53 -8.98,-6.92 -13.37,-7.18 -4.4,-0.27 -8.13,1.13 -11.2,4.2 -3.12,3.12 -4.55,6.85 -4.29,11.24 0.28,4.37 2.75,8.9 7.43,13.57zm77.6 -40.93l-5.45 -5.45c1.31,7.01 -0.49,12.95 -5.38,17.84 -2.16,2.16 -4.58,3.76 -7.28,4.81 -2.71,1.04 -5.14,1.39 -7.3,1.05 -2.17,-0.36 -4.33,-1.25 -6.51,-2.7 -1.48,-0.98 -3.54,-2.78 -6.18,-5.42l-22.71 -22.71 6.22 -6.22 20.31 20.3c3.24,3.24 5.56,5.3 6.93,6.18 2.03,1.25 4.13,1.7 6.33,1.35 2.19,-0.33 4.22,-1.41 6.08,-3.27 1.86,-1.87 3.13,-4.08 3.81,-6.66 0.67,-2.58 0.51,-5.05 -0.44,-7.37 -0.96,-2.31 -3.02,-5.04 -6.14,-8.17l-19.62 -19.62 6.22 -6.22 36.7 36.7 -5.59 5.58zm23.31 -34.41l6.35 4.65c-1.38,2.11 -2.76,3.86 -4.13,5.23 -2.25,2.25 -4.35,3.64 -6.32,4.17 -1.96,0.52 -3.76,0.46 -5.43,-0.2 -1.67,-0.66 -4.37,-2.86 -8.11,-6.6l-21.14 -21.14 -4.6 4.6 -4.81 -4.81 4.6 -4.6 -9.08 -9.08 2.49 -9.95 12.81 12.81 6.22 -6.22 4.81 4.8 -6.22 6.23 21.5 21.49c1.78,1.78 3.03,2.82 3.76,3.1 0.71,0.3 1.47,0.34 2.27,0.15 0.79,-0.2 1.65,-0.75 2.57,-1.67 0.68,-0.68 1.51,-1.67 2.46,-2.96zm17.91 -28.72l5.15 -7.14c2.81,2.12 5.66,3.04 8.56,2.78 2.89,-0.27 5.77,-1.82 8.59,-4.65 2.86,-2.86 4.41,-5.56 4.64,-8.12 0.22,-2.54 -0.45,-4.6 -2.02,-6.16 -1.41,-1.41 -3.14,-1.89 -5.18,-1.46 -1.42,0.32 -4.24,1.75 -8.47,4.26 -5.69,3.41 -9.83,5.56 -12.43,6.49 -2.61,0.91 -5.09,1.09 -7.48,0.51 -2.39,-0.57 -4.48,-1.75 -6.27,-3.54 -1.64,-1.63 -2.77,-3.52 -3.42,-5.65 -0.64,-2.15 -0.78,-4.32 -0.41,-6.52 0.25,-1.67 0.97,-3.6 2.14,-5.75 1.18,-2.17 2.71,-4.2 4.62,-6.11 2.88,-2.87 5.81,-4.98 8.81,-6.31 3.01,-1.36 5.75,-1.83 8.19,-1.45 2.46,0.4 5.08,1.58 7.84,3.57l-5.23 6.93c-2.18,-1.64 -4.48,-2.34 -6.87,-2.09 -2.39,0.25 -4.78,1.58 -7.2,4 -2.84,2.84 -4.41,5.35 -4.68,7.5 -0.27,2.16 0.22,3.88 1.48,5.14 0.81,0.8 1.79,1.29 2.94,1.43 1.17,0.15 2.51,-0.08 4.03,-0.73 0.86,-0.39 3.2,-1.68 7.07,-3.89 5.55,-3.22 9.58,-5.31 12.07,-6.32 2.49,-1 4.95,-1.27 7.35,-0.85 2.43,0.43 4.69,1.7 6.81,3.82 2.07,2.07 3.41,4.61 4.02,7.65 0.61,3.04 0.29,6.2 -0.99,9.48 -1.28,3.28 -3.37,6.36 -6.24,9.24 -4.76,4.76 -9.4,7.41 -13.86,7.94 -4.48,0.52 -9,-0.82 -13.56,-4zm56.74 -45.92l6.34 4.64c-1.38,2.11 -2.76,3.87 -4.12,5.23 -2.25,2.25 -4.36,3.65 -6.32,4.18 -1.96,0.51 -3.76,0.45 -5.43,-0.21 -1.68,-0.65 -4.37,-2.86 -8.11,-6.59l-21.14 -21.15 -4.6 4.6 -4.81 -4.81 4.6 -4.6 -9.08 -9.07 2.49 -9.96 12.81 12.81 6.22 -6.22 4.81 4.81 -6.22 6.22 21.49 21.49c1.78,1.78 3.03,2.82 3.76,3.11 0.72,0.29 1.48,0.34 2.28,0.15 0.79,-0.2 1.65,-0.76 2.57,-1.67 0.68,-0.69 1.5,-1.68 2.46,-2.96zm25.51 13.8l-6.46 -5.04c1.74,-1.01 3.1,-2 4.12,-3.01 1.39,-1.39 2.26,-2.74 2.62,-4.02 0.38,-1.3 0.42,-2.63 0.12,-3.98 -0.23,-1.02 -1.14,-3.2 -2.74,-6.54 -0.22,-0.46 -0.56,-1.15 -0.97,-2.08l-50.75 -22.88 6.65 -6.65 28.85 13.53c3.68,1.67 7.39,3.61 11.15,5.8 -2.07,-3.52 -3.98,-7.12 -5.7,-10.82l-13.58 -29.23 6.21 -6.21 23.47 51.21c2.52,5.51 4.11,9.44 4.79,11.79 0.93,3.15 1.16,5.92 0.69,8.3 -0.49,2.39 -1.73,4.57 -3.71,6.55 -1.2,1.2 -2.79,2.3 -4.76,3.28zm21.39 -49.6l-50.63 -50.63 6.23 -6.23 50.63 50.63 -6.23 6.23zm29.01 -52.77l7.28 -5.58c2.73,4.73 3.77,9.52 3.1,14.31 -0.67,4.8 -3.12,9.33 -7.38,13.58 -5.35,5.35 -11.24,7.95 -17.67,7.78 -6.43,-0.15 -12.63,-3.22 -18.58,-9.17 -6.15,-6.15 -9.36,-12.51 -9.58,-19.08 -0.24,-6.58 2.18,-12.38 7.24,-17.44 4.89,-4.89 10.54,-7.23 16.98,-6.99 6.43,0.23 12.68,3.37 18.72,9.42 0.37,0.36 0.91,0.93 1.62,1.68l-27.33 27.33c4.25,3.78 8.47,5.74 12.66,5.82 4.17,0.1 7.8,-1.39 10.85,-4.44 2.28,-2.27 3.62,-4.82 4.02,-7.63 0.41,-2.81 -0.24,-6.01 -1.93,-9.59zm-30.34 10.4l20.44 -20.44c-3.36,-2.82 -6.46,-4.34 -9.29,-4.6 -4.36,-0.42 -8.13,0.95 -11.28,4.1 -2.85,2.85 -4.29,6.19 -4.32,10.05 -0.02,3.84 1.46,7.47 4.45,10.89zm43.08 -21.3l5.16 -7.14c2.8,2.12 5.65,3.04 8.55,2.78 2.89,-0.27 5.77,-1.83 8.6,-4.65 2.86,-2.87 4.4,-5.57 4.63,-8.13 0.22,-2.53 -0.45,-4.59 -2.02,-6.16 -1.4,-1.4 -3.13,-1.88 -5.17,-1.45 -1.43,0.32 -4.24,1.75 -8.48,4.26 -5.69,3.4 -9.82,5.56 -12.43,6.49 -2.6,0.91 -5.09,1.08 -7.48,0.51 -2.38,-0.57 -4.48,-1.75 -6.27,-3.54 -1.64,-1.64 -2.77,-3.52 -3.42,-5.66 -0.64,-2.14 -0.78,-4.31 -0.41,-6.51 0.26,-1.68 0.98,-3.6 2.14,-5.75 1.18,-2.17 2.72,-4.2 4.62,-6.11 2.88,-2.87 5.81,-4.98 8.82,-6.32 3,-1.35 5.74,-1.82 8.19,-1.45 2.45,0.41 5.07,1.58 7.84,3.57l-5.24 6.94c-2.18,-1.64 -4.47,-2.34 -6.87,-2.09 -2.39,0.25 -4.78,1.58 -7.2,4 -2.84,2.84 -4.41,5.35 -4.68,7.5 -0.27,2.16 0.23,3.88 1.49,5.14 0.8,0.8 1.78,1.28 2.93,1.43 1.17,0.15 2.51,-0.09 4.03,-0.73 0.86,-0.39 3.21,-1.68 7.07,-3.89 5.56,-3.22 9.58,-5.32 12.07,-6.32 2.49,-1 4.95,-1.27 7.36,-0.85 2.42,0.43 4.69,1.7 6.81,3.82 2.06,2.06 3.4,4.61 4.02,7.65 0.61,3.04 0.28,6.2 -1,9.47 -1.28,3.29 -3.36,6.37 -6.24,9.24 -4.76,4.77 -9.39,7.42 -13.86,7.95 -4.48,0.51 -8.99,-0.82 -13.56,-4z"/>
 </g>
</svg>
