<?xml version="1.0" encoding="UTF-8"?>
<!DOCTYPE svg PUBLIC "-//W3C//DTD SVG 1.1//EN" "http://www.w3.org/Graphics/SVG/1.1/DTD/svg11.dtd">
<svg xmlns="http://www.w3.org/2000/svg" xml:space="preserve" width="30px" height="30px" version="1.1" style="shape-rendering:geometricPrecision; text-rendering:geometricPrecision; image-rendering:optimizeQuality; fill-rule:evenodd; clip-rule:evenodd"
viewBox="0 0 30 30"
 xmlns:xlink="http://www.w3.org/1999/xlink">
 <defs>
  <style type="text/css">
   <![CDATA[
    .str0 {stroke:black;stroke-width:2.36;stroke-miterlimit:22.9256}
    .str1 {stroke:white;stroke-width:2.36;stroke-miterlimit:22.9256}
    .fil0 {fill:none}
   ]]>
  </style>
 </defs>
 <g id="x0020_1">
  <metadata id="Hlogin-Layer"/>
  <path class="fil0 str0" d="M16 6c2.76,0 5,2.24 5,5 0,2.76 -2.24,5 -5,5 -2.76,0 -5,-2.24 -5,-5 0,-2.76 2.24,-5 5,-5z"/>
  <path class="fil0 str0" d="M16 17.5c4.92,0 8.97,3.74 9.45,8.54 0.03,0.31 0.05,0.64 0.05,0.96l-19 0 0 -0.22c0.12,-5.14 4.33,-9.28 9.5,-9.28z"/>
  <path class="fil0 str1" d="M15 5c2.76,0 5,2.24 5,5 0,2.76 -2.24,5 -5,5 -2.76,0 -5,-2.24 -5,-5 0,-2.76 2.24,-5 5,-5z"/>
  <path class="fil0 str1" d="M15 16.5c4.92,0 8.97,3.74 9.45,8.54 0.03,0.31 0.05,0.64 0.05,0.96l-19 0 0 -0.22c0.12,-5.14 4.33,-9.28 9.5,-9.28z"/>
 </g>
</svg>
