<?xml version="1.0" encoding="UTF-8"?>
<!DOCTYPE svg PUBLIC "-//W3C//DTD SVG 1.1//EN" "http://www.w3.org/Graphics/SVG/1.1/DTD/svg11.dtd">
<svg xmlns="http://www.w3.org/2000/svg" xml:space="preserve" width="30px" height="30px" version="1.1" style="shape-rendering:geometricPrecision; text-rendering:geometricPrecision; image-rendering:optimizeQuality; fill-rule:evenodd; clip-rule:evenodd"
viewBox="0 0 300 300"
 xmlns:xlink="http://www.w3.org/1999/xlink"
>
 <defs>
  <style type="text/css">
   <![CDATA[
    .fil3 {fill:#FEFEFE}
    .fil0 {fill:#2B2A29}
    .fil2 {fill:#FEFEFE;fill-rule:nonzero}
    .fil1 {fill:#2B2A29;fill-rule:nonzero}
   ]]>
  </style>
 </defs>
 <g id="x0020_1">
  <metadata id="Hlogin-Layer"/>
  <rect class="fil0" x="43.8" y="262.3" width="215.5" height="17.8"/>
  <path class="fil1" d="M53.2 64l206.8 0 0 173.4 -215.5 0 0 -173.4 8.7 0zm188.9 16.7l-180.5 0 0.4 139.3 180.5 0 -0.4 -139.3z"/>
  <polygon class="fil1" points="58.9,64.2 146.8,140.6 245.6,64.2 257,81.3 145.8,168.9 44.5,88.1 "/>
  <path class="fil2" d="M40.7 53.4l206.7 0 -0.2 176.6 -215.4 0 0.2 -176.6 8.7 0zm188.8 17.4l-180 0 0.5 139.2 180 0 -0.5 -139.2z"/>
  <polygon class="fil2" points="49.1,53.5 146.1,129.5 235.8,53.5 247.1,70.7 146.1,154.2 37.7,70.7 "/>
  <rect class="fil3" x="30" y="253.4" width="216.6" height="17.8"/>
 </g>
</svg>
